<svg xmlns="http://www.w3.org/2000/svg" fill="none" viewBox="0 0 16 16">
<g opacity="0.5" clip-path="url(#clip0_1157_1125)">
<path d="M14.8326 2.32094C14.0435 1.4255 12.9487 0.932373 11.75 0.932373C10.0641 0.932373 8.99678 1.93925 8.39828 2.78394C8.243 3.00312 8.11091 3.2229 8 3.42972C7.88909 3.2229 7.75703 3.00312 7.60172 2.78394C7.00322 1.93925 5.93587 0.932373 4.25 0.932373C3.05131 0.932373 1.95653 1.42553 1.16734 2.32097C0.414594 3.17515 0 4.31915 0 5.54222C0 6.87356 0.519781 8.11184 1.63578 9.43909C2.63319 10.6253 4.06809 11.8481 5.72969 13.264C6.34884 13.7916 6.98912 14.3372 7.67078 14.9337L7.69125 14.9516C7.77962 15.029 7.88981 15.0676 8 15.0676C8.11019 15.0676 8.22038 15.0289 8.30875 14.9516L8.32922 14.9337C9.01087 14.3372 9.65116 13.7917 10.2704 13.2639C11.9319 11.8481 13.3668 10.6254 14.3642 9.43909C15.4802 8.11181 16 6.87356 16 5.54222C16 4.31915 15.5854 3.17515 14.8326 2.32094ZM9.66228 12.5504C9.12853 13.0052 8.57922 13.4733 8 13.9769C7.42081 13.4734 6.87147 13.0053 6.33763 12.5504C3.08578 9.77934 0.9375 7.94869 0.9375 5.54222C0.9375 4.54753 1.26891 3.62365 1.87069 2.94081C2.47937 2.25022 3.32434 1.86987 4.25 1.86987C5.53528 1.86987 6.36613 2.66169 6.83675 3.32594C7.25891 3.92169 7.47919 4.52225 7.55431 4.75278C7.61716 4.94575 7.79706 5.07634 8 5.07634C8.20294 5.07634 8.38284 4.94575 8.44569 4.75278C8.52081 4.52225 8.74109 3.92169 9.16325 3.3259C9.63387 2.66169 10.4647 1.86987 11.75 1.86987C12.6757 1.86987 13.5206 2.25022 14.1293 2.94081C14.7311 3.62365 15.0625 4.54753 15.0625 5.54222C15.0625 7.94869 12.9142 9.77934 9.66228 12.5504Z" fill="#E0DCDC"/>
</g>
<defs>
<clipPath id="clip0_1157_1125">
<rect width="16" height="16" fill="white"/>
</clipPath>
</defs>
</svg>