<svg xmlns="http://www.w3.org/2000/svg" fill="none" viewBox="2.52 16.67 23.48 24.61"> <g clip-path="url(#clip0_1157_1155)"> <path d="M17.4652 24.4011H15.3306V25.1042H17.4652V24.4011Z" fill="#5201BB"/> <path d="M21.7344 24.4011H19.5998V25.1042H21.7344V24.4011Z" fill="#5201BB"/> <path d="M20.2686 28.4164L16.1286 38.4875L16.8973 38.7867L21.0374 28.7156L20.2686 28.4164Z" fill="#5201BB"/> <path d="M15.3305 32.8386C15.7527 32.8386 16.1654 32.7149 16.5164 32.4831C16.8674 32.2513 17.141 31.9219 17.3026 31.5365C17.4642 31.151 17.5064 30.7269 17.4241 30.3177C17.3417 29.9086 17.1384 29.5327 16.8399 29.2377C16.5413 28.9427 16.161 28.7418 15.7469 28.6604C15.3328 28.579 14.9036 28.6208 14.5136 28.7804C14.1235 28.9401 13.7902 29.2105 13.5556 29.5573C13.3211 29.9042 13.1959 30.3121 13.1959 30.7292C13.1969 31.2884 13.4221 31.8243 13.8222 32.2197C14.2223 32.615 14.7647 32.8376 15.3305 32.8386ZM15.3305 29.3869C15.5991 29.3869 15.8618 29.4656 16.0852 29.6131C16.3085 29.7606 16.4827 29.9703 16.5855 30.2156C16.6883 30.4608 16.7152 30.7307 16.6628 30.9911C16.6104 31.2515 16.481 31.4907 16.291 31.6784C16.101 31.8661 15.859 31.994 15.5955 32.0458C15.332 32.0976 15.0589 32.071 14.8106 31.9694C14.5624 31.8678 14.3503 31.6958 14.201 31.475C14.0518 31.2543 13.9721 30.9947 13.9721 30.7292C13.9721 30.3732 14.1152 30.0318 14.3699 29.7801C14.6247 29.5283 14.9702 29.3869 15.3305 29.3869Z" fill="#5201BB"/> <path d="M19.5998 36.3542C19.5998 36.7714 19.725 37.1793 19.9595 37.5262C20.1941 37.873 20.5275 38.1434 20.9175 38.3031C21.3076 38.4627 21.7368 38.5045 22.1509 38.4231C22.5649 38.3417 22.9453 38.1408 23.2438 37.8458C23.5423 37.5508 23.7456 37.1749 23.828 36.7658C23.9104 36.3566 23.8681 35.9325 23.7065 35.547C23.545 35.1616 23.2714 34.8321 22.9203 34.6004C22.5693 34.3686 22.1566 34.2449 21.7344 34.2449C21.1686 34.2459 20.6262 34.4685 20.2261 34.8638C19.826 35.2592 19.6008 35.7951 19.5998 36.3542ZM23.0928 36.3542C23.0928 36.6197 23.0131 36.8793 22.8639 37.1C22.7146 37.3208 22.5025 37.4928 22.2542 37.5944C22.006 37.696 21.7329 37.7226 21.4694 37.6708C21.2059 37.619 20.9639 37.4911 20.7739 37.3034C20.5839 37.1157 20.4545 36.8765 20.4021 36.6161C20.3497 36.3557 20.3766 36.0858 20.4794 35.8406C20.5822 35.5953 20.7563 35.3856 20.9797 35.2381C21.2031 35.0906 21.4657 35.0119 21.7344 35.0119C22.0947 35.0119 22.4402 35.1533 22.6949 35.4051C22.9497 35.6568 23.0928 35.9982 23.0928 36.3542Z" fill="#5201BB"/> <path d="M8.52059 21.2512C8.34685 21.3697 8.14981 21.4539 7.94112 21.4988C7.73243 21.5438 7.51634 21.5487 7.30562 21.5132C7.09376 21.4794 6.89104 21.4062 6.70913 21.2979C6.52723 21.1896 6.36972 21.0483 6.24567 20.8821C6.1816 20.7965 6.08437 20.7385 5.97525 20.7206C5.86612 20.7028 5.75398 20.7266 5.66333 20.7868L3.5141 22.2237C3.00366 22.5704 2.65891 23.0945 2.55528 23.6814C2.45164 24.2683 2.59755 24.8702 2.96108 25.3554L5.31141 28.4991C5.37805 28.5831 5.47496 28.6411 5.58373 28.6618C5.6937 28.6778 5.80598 28.6537 5.89794 28.5944C6.01743 28.5121 6.15337 28.4539 6.29745 28.4232C6.44153 28.3925 6.5907 28.3899 6.73585 28.4157C6.95283 28.4511 7.15391 28.5465 7.31371 28.69C7.4735 28.8335 7.58485 29.0186 7.6337 29.222C7.68255 29.4254 7.66672 29.638 7.5882 29.8328C7.50968 30.0277 7.37199 30.1962 7.19251 30.317C7.14719 30.3471 7.10862 30.3854 7.07901 30.4297C7.04941 30.4739 7.02935 30.5233 7.02 30.575C7.01065 30.6267 7.0122 30.6796 7.02455 30.7307C7.0369 30.7818 7.05981 30.83 7.09196 30.8727L10.8625 35.9216V38.8946C10.8625 39.5262 11.1274 40.132 11.5988 40.5786C12.0702 41.0252 12.7096 41.2761 13.3762 41.2761H23.4898C24.1564 41.2761 24.7958 41.0252 25.2672 40.5786C25.7386 40.132 26.0035 39.5262 26.0035 38.8946V26.3755C26.0035 26.2703 25.9593 26.1693 25.8808 26.0949C25.8022 26.0204 25.6956 25.9786 25.5845 25.9786C25.2906 25.9327 25.0235 25.7893 24.8308 25.5742C24.638 25.359 24.5322 25.0859 24.5322 24.8037C24.5322 24.5215 24.638 24.2485 24.8308 24.0333C25.0235 23.8181 25.2906 23.6748 25.5845 23.6288C25.6956 23.6288 25.8022 23.587 25.8808 23.5126C25.9593 23.4381 26.0035 23.3372 26.0035 23.2319V19.0483C26.0035 18.4167 25.7386 17.8109 25.2672 17.3643C24.7958 16.9177 24.1564 16.6667 23.4898 16.6667H20.6409C20.5298 16.6667 20.4232 16.7086 20.3446 16.783C20.2661 16.8574 20.2219 16.9584 20.2219 17.0637C20.1996 17.5016 20.0003 17.9146 19.6653 18.217C19.3303 18.5195 18.8853 18.6882 18.4225 18.6882C17.9598 18.6882 17.5148 18.5195 17.1798 18.217C16.8448 17.9146 16.6454 17.5016 16.6231 17.0637C16.6231 16.9584 16.579 16.8574 16.5004 16.783C16.4219 16.7086 16.3153 16.6667 16.2042 16.6667H13.3553C13.1837 16.6667 13.0125 16.6826 12.8442 16.7144C12.2457 16.6343 11.6378 16.7765 11.1474 17.1113L9.01076 18.5442C8.96545 18.5743 8.92688 18.6126 8.89727 18.6569C8.86766 18.7011 8.8476 18.7505 8.83825 18.8022C8.82891 18.8539 8.83045 18.9068 8.8428 18.9579C8.85515 19.009 8.87806 19.0572 8.91021 19.0999C9.1595 19.4342 9.25849 19.8486 9.18543 20.252C9.11237 20.6554 8.87323 21.0148 8.52059 21.2512ZM15.8313 17.4606C15.9336 18.0448 16.2515 18.5757 16.7284 18.9587C17.2052 19.3416 17.81 19.5518 18.4351 19.5518C19.0602 19.5518 19.665 19.3416 20.1418 18.9587C20.6187 18.5757 20.9366 18.0448 21.0389 17.4606H23.4898C23.9342 17.4606 24.3605 17.6279 24.6747 17.9256C24.989 18.2234 25.1656 18.6272 25.1656 19.0483V22.8588C24.7088 22.9634 24.3024 23.2105 24.0117 23.5604C23.7211 23.9103 23.563 24.3426 23.563 24.7878C23.563 25.2331 23.7211 25.6654 24.0117 26.0153C24.3024 26.3652 24.7088 26.6123 25.1656 26.7169V38.8946C25.1656 39.3157 24.989 39.7195 24.6747 40.0172C24.3605 40.315 23.9342 40.4823 23.4898 40.4823H13.3679C12.9234 40.4823 12.4972 40.315 12.1829 40.0172C11.8686 39.7195 11.6921 39.3157 11.6921 38.8946V26.7328C12.1489 26.6282 12.5552 26.381 12.8459 26.0312C13.1366 25.6813 13.2946 25.249 13.2946 24.8037C13.2946 24.3585 13.1366 23.9262 12.8459 23.5763C12.5552 23.2264 12.1489 22.9793 11.6921 22.8747V19.0483C11.6921 18.6272 11.8686 18.2234 12.1829 17.9256C12.4972 17.6279 12.9234 17.4606 13.3679 17.4606H15.8313ZM9.80677 18.9848L11.0301 18.1632C10.9072 18.4438 10.8431 18.7444 10.8416 19.0483V23.216C10.8416 23.3213 10.8857 23.4222 10.9643 23.4967C11.0429 23.5711 11.1494 23.6129 11.2605 23.6129C11.4405 23.5848 11.6247 23.5941 11.8004 23.6402C11.9762 23.6863 12.1392 23.7681 12.2783 23.8799C12.4173 23.9917 12.529 24.1308 12.6057 24.2876C12.6823 24.4444 12.722 24.6151 12.722 24.7878C12.722 24.9606 12.6823 25.1313 12.6057 25.2881C12.529 25.4449 12.4173 25.584 12.2783 25.6958C12.1392 25.8076 11.9762 25.8894 11.8004 25.9354C11.6247 25.9815 11.4405 25.9909 11.2605 25.9627C11.1494 25.9627 11.0429 26.0046 10.9643 26.079C10.8857 26.1534 10.8416 26.2544 10.8416 26.3597V34.5482L7.98852 30.702C8.28908 30.3906 8.46765 29.9908 8.49434 29.5696C8.52103 29.1484 8.39423 28.7312 8.13515 28.388C7.838 27.9889 7.38605 27.7178 6.87829 27.6338C6.51108 27.5717 6.13276 27.6117 5.78901 27.7489L3.6356 24.895C3.40232 24.5816 3.30969 24.1934 3.37802 23.8155C3.44634 23.4375 3.67004 23.1006 4.00009 22.8786L5.8351 21.6442C6.24738 22.0336 6.79128 22.2728 7.37128 22.32C7.95127 22.3672 8.53026 22.2193 9.00657 21.9022C9.4798 21.5819 9.81921 21.1143 9.96547 20.5811C10.1117 20.0478 10.0556 19.4828 9.80677 18.9848Z" fill="#5201BB"/> </g> </svg>